<svg xmlns="http://www.w3.org/2000/svg" xmlns:xlink="http://www.w3.org/1999/xlink" viewBox="0 0 430 430" width="430" height="430" preserveAspectRatio="xMidYMid meet" style="width: 100%; height: 100%; transform: translate3d(0px, 0px, 0px); content-visibility: visible;"><defs><clipPath id="__lottie_element_2"><rect width="430" height="430" x="0" y="0"/></clipPath><clipPath id="__lottie_element_4"><path d="M0,0 L430,0 L430,430 L0,430z"/></clipPath><filter id="__lottie_element_10" x="-100%" y="-100%" width="300%" height="300%"><feGaussianBlur result="filter_result_0" stdDeviation="52.5 52.5" edgeMode="wrap"/></filter><g id="__lottie_element_11"><g clip-path="url(#__lottie_element_12)" transform="matrix(1,0,0,1,0,0)" opacity="1" style="display: block;"><g transform="matrix(1,0,0,1,-35,-35)" opacity="1" style="display: block;"><g opacity="1" transform="matrix(1,0,0,1,250,250)"><path stroke-linecap="round" stroke-linejoin="round" fill-opacity="0" class="primary" stroke="rgb(18,19,49)" stroke-opacity="1" stroke-width="12" d=" M137.71200561523438,160.11900329589844 C137.71200561523438,160.11900329589844 -137.71200561523438,160.11900329589844 -137.71200561523438,160.11900329589844 C-150.08700561523438,160.11900329589844 -160.11900329589844,150.08700561523438 -160.11900329589844,137.71200561523438 C-160.11900329589844,137.71200561523438 -160.11900329589844,-137.71200561523438 -160.11900329589844,-137.71200561523438 C-160.11900329589844,-150.08700561523438 -150.08700561523438,-160.11900329589844 -137.71200561523438,-160.11900329589844 C-137.71200561523438,-160.11900329589844 137.71200561523438,-160.11900329589844 137.71200561523438,-160.11900329589844 C150.08700561523438,-160.11900329589844 160.11900329589844,-150.08700561523438 160.11900329589844,-137.71200561523438 C160.11900329589844,-137.71200561523438 160.11900329589844,137.71200561523438 160.11900329589844,137.71200561523438 C160.11900329589844,150.08700561523438 150.08700561523438,160.11900329589844 137.71200561523438,160.11900329589844z"/></g><g opacity="1" transform="matrix(1,0,0,1,249,141.25399780273438)"><path stroke-linecap="round" stroke-linejoin="round" fill-opacity="0" class="primary" stroke="rgb(18,19,49)" stroke-opacity="1" stroke-width="12" d=" M159.11900329589844,0 C159.11900329589844,0 -159.11900329589844,0 -159.11900329589844,0"/></g><g opacity="1" transform="matrix(1,0,0,1,0,0)"><g opacity="1" transform="matrix(1,0,0,1,177.9320068359375,115.56700134277344)"><path stroke-linecap="round" stroke-linejoin="round" fill-opacity="0" class="secondary" stroke="rgb(8,168,138)" stroke-opacity="1" stroke-width="15" d=" M-0.06800000369548798,0 C-0.06800000369548798,0 0.06800000369548798,0 0.06800000369548798,0"/></g><g opacity="1" transform="matrix(1,0,0,1,121.63600158691406,115.56700134277344)"><path stroke-linecap="round" stroke-linejoin="round" fill-opacity="0" class="secondary" stroke="rgb(8,168,138)" stroke-opacity="1" stroke-width="15" d=" M-0.06800000369548798,0 C-0.06800000369548798,0 0.06800000369548798,0 0.06800000369548798,0"/></g><g opacity="1" transform="matrix(1,0,0,1,149.78399658203125,115.56700134277344)"><path stroke-linecap="round" stroke-linejoin="round" fill-opacity="0" class="secondary" stroke="rgb(8,168,138)" stroke-opacity="1" stroke-width="15" d=" M-0.06800000369548798,0 C-0.06800000369548798,0 0.06800000369548798,0 0.06800000369548798,0"/></g></g></g><g transform="matrix(1,0,0,1,215,248.3599853515625)" opacity="1" style="display: block;"><g opacity="1" transform="matrix(1,0,0,1,0,0)"><path stroke-linecap="round" stroke-linejoin="round" fill-opacity="0" class="secondary" stroke="rgb(8,168,138)" stroke-opacity="1" stroke-width="12" d=" M-15.130000114440918,46.70000076293945 C-15.130000114440918,46.70000076293945 15.130000114440918,-46.70000076293945 15.130000114440918,-46.70000076293945"/></g></g><g transform="matrix(1,0,0,1,303.3999938964844,248.3599853515625)" opacity="1" style="display: block;"><g opacity="1" transform="matrix(1,0,0,1,0,0)"><path stroke-linecap="round" stroke-linejoin="round" fill-opacity="0" class="secondary" stroke="rgb(8,168,138)" stroke-opacity="1" stroke-width="12" d=" M-31.690000534057617,46.70000076293945 C-31.690000534057617,46.70000076293945 31.690000534057617,0 31.690000534057617,0 C31.690000534057617,0 -31.690000534057617,-46.70000076293945 -31.690000534057617,-46.70000076293945"/></g></g><g transform="matrix(1,0,0,1,126.60000610351562,248.3599853515625)" opacity="1" style="display: block;"><g opacity="1" transform="matrix(1,0,0,1,0,0)"><path stroke-linecap="round" stroke-linejoin="round" fill-opacity="0" class="secondary" stroke="rgb(8,168,138)" stroke-opacity="1" stroke-width="12" d=" M31.690000534057617,46.70000076293945 C31.690000534057617,46.70000076293945 -31.690000534057617,0 -31.690000534057617,0 C-31.690000534057617,0 31.690000534057617,-46.70000076293945 31.690000534057617,-46.70000076293945"/></g></g></g></g><clipPath id="__lottie_element_12"><path d="M0,0 L430,0 L430,430 L0,430z"/></clipPath><mask id="__lottie_element_11_1" mask-type="alpha"><use xmlns:ns1="http://www.w3.org/1999/xlink" ns1:href="#__lottie_element_11"/></mask></defs><g clip-path="url(#__lottie_element_2)"><g clip-path="url(#__lottie_element_4)" transform="matrix(1,0,0,1,0,0)" opacity="1" style="display: block;"><g mask="url(#__lottie_element_11_1)" style="display: block;"><g filter="url(#__lottie_element_10)" transform="matrix(-0.1674155443906784,-2.3941538333892822,2.3941538333892822,-0.1674155443906784,271.9410095214844,220.4600067138672)" opacity="1"><g class="design" opacity="1" transform="matrix(1,0,0,1,0,0)"><path class="primary" fill="rgb(57,255,228)" fill-opacity="1" d=" M0,-250 C137.97500610351562,-250 250,-137.97500610351562 250,0 C250,137.97500610351562 137.97500610351562,250 0,250 C-137.97500610351562,250 -250,137.97500610351562 -250,0 C-250,-137.97500610351562 -137.97500610351562,-250 0,-250z"/></g><g class="design" opacity="1" transform="matrix(1,0,0,1,113.24199676513672,-118.88400268554688)"><path class="secondary" fill="rgb(0,0,0)" fill-opacity="1" d=" M0,-176.5 C97.47799682617188,-176.5 176.5,-97.47799682617188 176.5,0 C176.5,97.47799682617188 97.47799682617188,176.5 0,176.5 C-43.948001861572266,176.5 -74.39600372314453,142.4429931640625 -105.29000091552734,115.86900329589844 C-142.92100524902344,83.5 -176.5,53.53099822998047 -176.5,0 C-176.5,-97.47799682617188 -97.47799682617188,-176.5 0,-176.5z"/></g></g></g></g></g></svg>